# xmcd
#
# Track frame offsets: 
#        150
#        21740
#        63192
#        80767
#        98757
#        122902
#        159667
#        184325
#        211122
#        232485
#        266372
#        284287
#
# Disc length: 4144 seconds
#
# Revision: 0
# Processed by: cddbd v1.5.2PL0 Copyright (c) Steve Scherf et al.
# Submitted via: ExactAudioCopyFreeDBPlugin 1.0
#
DISCID=b2102e0c
DTITLE=Various Artist - Fantastic Guitar Blues
DYEAR=1997
DGENRE=Blues
TTITLE0=Santana - I love you much to much
TTITLE1=Stevie Ray Vaughan - Tin pap alley
TTITLE2=Rolling Stones - I got the blues
TTITLE3=Albert King - I'll play the blues for you
TTITLE4=Larry Carlton - Blues for Tj
TTITLE5=Eric Clapton - Double trouble
TTITLE6=B.B. King - The thrill is gone
TTITLE7=Roy Buchanan - The messiah will come again
TTITLE8=Z.Z Top - Blue jean blues
TTITLE9=All man brothers - Jessica
TTITLE10=Robert Cray - I wonder
TTITLE11=Gary Moore - The loner
EXTD=
EXTT0=
EXTT1=
EXTT2=
EXTT3=
EXTT4=
EXTT5=
EXTT6=
EXTT7=
EXTT8=
EXTT9=
EXTT10=
EXTT11=
PLAYORDER=
